<svg width="791.30542" height="791.30542" xmlns="http://www.w3.org/2000/svg"  version="1.1">
 <metadata id="metadata7">image/svg+xml</metadata>
 <g>
  <title>Layer 1</title>
  <g id="layer1"  >
   <g id="g3013">
    <polygon fill="#264de4" points="181.14500427246094,651.6527099609375 33.01099395751953,610.5297241210938 7.812502644810593e-8,240.272705078125 362.7340393066406,240.272705078125 329.6880187988281,610.4716796875 " id="polygon2989"/>
    <polygon fill="#2965f1" points="301.3970031738281,586.8987426757812 329.6369934082031,270.5467224121094 181.36700439453125,270.5467224121094 181.36700439453125,620.1757202148438 " id="polygon2991"/>
    <polygon fill="#ebebeb" points="75.67699432373047,407.86968994140625 79.74700164794922,453.27972412109375 181.36700439453125,453.27972412109375 181.36700439453125,407.86968994140625 " id="polygon2993"/>
    <polygon fill="#ebebeb" points="67.4990005493164,315.95770263671875 71.62699127197266,361.36871337890625 181.36700439453125,361.36871337890625 181.36700439453125,315.95770263671875 181.2100067138672,315.95770263671875 " id="polygon2995"/>
    <polygon fill="#ebebeb" points="181.36700439453125,525.8057250976562 181.16799926757812,525.8587036132812 130.59400939941406,512.2026977539062 127.36100006103516,475.9857177734375 102.78600311279297,475.9857177734375 81.77599334716797,475.9857177734375 88.13799285888672,547.2867431640625 181.1580047607422,573.1097412109375 181.36700439453125,573.0516967773438 " id="polygon2997"/>
    <path  d="m85.367,139.65271l55,0l0,23l-32,0l0,23l32,0l0,23l-55,0l0,-69z" id="path2999"/>
    <path  d="m151.367,139.65271l55,0l0,20l-32,0l0,4l32,0l0,46l-55,0l0,-21l32,0l0,-4l-32,0l0,-45z" id="path3001"/>
    <path  d="m217.367,139.65271l55,0l0,20l-32,0l0,4l32,0l0,46l-55,0l0,-21l32,0l0,-4l-32,0l0,-45z" id="path3003"/>
    <polygon fill="#ffffff" points="286.7659912109375,407.86968994140625 294.9639892578125,315.95770263671875 181.2100067138672,315.95770263671875 181.2100067138672,361.36871337890625 245.197998046875,361.36871337890625 241.06600952148438,407.86968994140625 181.2100067138672,407.86968994140625 181.2100067138672,453.27972412109375 237.12799072265625,453.27972412109375 231.85699462890625,512.1737060546875 181.2100067138672,525.84375 181.2100067138672,573.0877075195312 274.30401611328125,547.2867431640625 274.98699951171875,539.61474609375 285.6579895019531,420.063720703125 " id="polygon3005"/>
   </g>
   <g id="g3054">
    <polygon fill="#e44d26" points="791.305419921875,240.272705078125 758.2594604492188,610.4716796875 609.7164306640625,651.6527099609375 461.5824279785156,610.5297241210938 428.5714416503906,240.272705078125 " id="polygon3028"/>
    <polygon fill="#f16529" points="609.9384155273438,620.1757202148438 729.9684448242188,586.8987426757812 758.2084350585938,270.5467224121094 609.9384155273438,270.5467224121094 " id="polygon3030"/>
    <polygon fill="#ebebeb" points="545.6984252929688,361.36871337890625 609.9384155273438,361.36871337890625 609.9384155273438,315.95770263671875 609.7814331054688,315.95770263671875 496.0704345703125,315.95770263671875 497.15740966796875,328.1407165527344 508.31842041015625,453.27972412109375 609.9384155273438,453.27972412109375 609.9384155273438,407.86968994140625 549.8484497070312,407.86968994140625 " id="polygon3032"/>
    <polygon fill="#ebebeb" points="555.9324340820312,475.9857177734375 531.357421875,475.9857177734375 510.347412109375,475.9857177734375 516.7094116210938,547.2867431640625 609.7294311523438,573.1097412109375 609.9384155273438,573.0516967773438 609.9384155273438,525.8057250976562 609.7394409179688,525.8587036132812 559.1654052734375,512.2026977539062 " id="polygon3034"/>
    <path  d="m462.32042,139.65271l23.077,0l0,22.8l21.11,0l0,-22.8l23.078,0l0,69.044l-23.077,0l0,-23.12l-21.11,0l0,23.12l-23.077,0l0,-69.044l-0.001,0z" id="path3036"/>
    <path  d="m559.93242,162.54871l-20.316,0l0,-22.896l63.72,0l0,22.896l-20.325,0l0,46.148l-23.078,0l0,-46.148l-0.001,0z" id="path3038"/>
    <path  d="m613.44942,139.65271l24.063,0l14.802,24.26l14.787,-24.26l24.072,0l0,69.044l-22.982,0l0,-34.222l-15.877,24.549l-0.397,0l-15.888,-24.549l0,34.222l-22.58,0l0,-69.044z" id="path3040"/>
    <path  d="m702.65842,139.65271l23.084,0l0,46.222l32.453,0l0,22.822l-55.537,0l0,-69.044z" id="path3042"/>
    <polygon fill="#ffffff" points="609.7814331054688,453.27972412109375 665.6994018554688,453.27972412109375 660.4284057617188,512.1737060546875 609.7814331054688,525.84375 609.7814331054688,573.0877075195312 702.8754272460938,547.2867431640625 703.5584106445312,539.61474609375 714.2294311523438,420.063720703125 715.33740234375,407.86968994140625 703.1004028320312,407.86968994140625 609.7814331054688,407.86968994140625 " id="polygon3044"/>
    <polygon fill="#ffffff" points="609.7814331054688,361.2577209472656 609.7814331054688,361.36871337890625 719.3234252929688,361.36871337890625 719.3234252929688,361.36871337890625 719.4694213867188,361.36871337890625 720.3804321289062,351.1617126464844 722.4494018554688,328.1407165527344 723.535400390625,315.95770263671875 609.7814331054688,315.95770263671875 609.7814331054688,344.1617126464844 " id="polygon3046"/>
   </g>
  </g>
 </g>
</svg>