<svg width="559.50037" height="559.50037" xmlns="http://www.w3.org/2000/svg" version="1.1">
 <metadata id="metadata70">image/svg+xml</metadata>

 <g>
  <title>Layer 1</title>
  <path d="m82.40447,109.33203l0.0625,5c0.03444,2.75 8.00162,93.80066 17.70507,202.33399l17.64258,197.33398l79.29492,22.20117c43.61211,12.21062 80.19493,22.26265 81.29493,22.33985c1.1,0.0771 38.16591,-9.87392 82.36914,-22.11329c70.87044,-19.6232 80.43786,-22.57875 80.94531,-25.00781c0.707,-3.38418 35.41255,-394.89905 35.37695,-399.08789l-0.0254,-3l-197.33397,0l-197.33203,0z" id="path118" stroke-width="1.33333" fill="#ffffff"/>
  <path id="path88" d="m197.75783,537.52932l-80,-22.36163l-1.04545,-5.91717c-0.92931,-5.25978 -35.62122,-392.7343 -35.62122,-397.85392c0,-1.85291 20.25565,-2.06327 198.66667,-2.06327c188.32331,0 198.66587,0.12147 198.65133,2.33333c-0.0628,9.55335 -35.97164,402.15858 -36.85409,402.94002c-1.11511,0.98746 -155.95653,44.12552 -161.13057,44.89017c-1.46667,0.21676 -38.66667,-9.66863 -82.66667,-21.96753zm132.44436,-79.01302c26.88893,-7.41602 49.27699,-13.86602 49.75121,-14.33333c0.47423,-0.46731 3.62071,-32.34964 6.99216,-70.84964c3.37146,-38.5 6.47022,-72.55 6.88612,-75.66667l0.75622,-5.66666l-58.08171,0l-58.08169,0l0,24.66666l0,24.66667l31.35873,0l31.35873,0l-0.6238,3c-0.34309,1.65 -1.67673,15.82935 -2.96364,31.50967c-1.36361,16.6149 -2.98028,29.1501 -3.87486,30.04469c-0.84427,0.84427 -13.62206,4.75671 -28.3951,8.69431l-26.86006,7.15929l0,25.12935c0,17.15185 0.45852,25.12936 1.44436,25.12936c0.7944,0 23.4444,-6.06767 50.33333,-13.4837zm63.62125,-197.5163c-0.88136,-6.53338 -8.73228,-94.16283 -8.73228,-97.46696c0,-2.00692 -4.61566,-2.19971 -52.66666,-2.19971l-52.66667,0l0,25.79372l0,25.79373l23.66667,0.91218c13.01666,0.50169 26.71548,1.26522 30.4418,1.69674l6.77512,0.78459l1.64474,20.17619c0.9046,11.0969 1.98248,22.42618 2.39528,25.17618l0.75055,5l24.57795,0l24.57796,0l-0.76446,-5.66666z" stroke-width="1.33333" fill="#eaebec"/>
  <path id="path80" d="m197.10929,536.2011l-79.29473,-22.2011l-17.64265,-197.33334c-9.70346,-108.53333 -17.67083,-199.58333 -17.70527,-202.33333l-0.0626,-5l197.33332,0l197.33333,0l0.0256,3c0.0356,4.18884 -34.67072,395.70379 -35.37772,399.08797c-0.50745,2.42906 -10.07454,5.38483 -80.94498,25.00803c-44.20323,12.23937 -81.26951,22.19028 -82.36951,22.11315c-1.1,-0.0772 -37.68263,-10.13076 -81.29473,-22.34138l-0.00006,0zm133.13264,-76.74193c27.41084,-7.62076 50.2269,-14.48533 50.70234,-15.2546c0.47542,-0.76927 3.75001,-34.28 7.27684,-74.46829c3.52682,-40.18828 6.70121,-74.11962 7.05418,-75.40295c0.60635,-2.20456 -4.05766,-2.33333 -84.51377,-2.33333l-85.15553,0l3.62565,-38.33334c1.99411,-21.08333 3.67367,-38.38792 3.73235,-38.45464c0.0587,-0.0667 12.5567,-0.46537 27.77337,-0.8859c24.95099,-0.68958 76.40477,1.30088 78.12613,3.02224c0.64308,0.64308 4.87387,42.15037 4.87387,47.81645c0,2.79381 0.37699,2.83519 25.83621,2.83519l25.83623,0l-0.60884,-5.66667c-0.33487,-3.11667 -2.52341,-27.26667 -4.86345,-53.66667l-4.25462,-48l-99.63942,-0.34182c-79.26871,-0.27194 -99.64168,0.00065 -99.65038,1.33333c-0.007,0.92135 -0.58701,6.77516 -1.29109,13.00849c-1.70375,15.08355 -14.69797,160.82251 -14.69797,164.84759l0,3.15241l84.78386,0l84.78387,0l-0.75581,5c-0.4157,2.75 -1.73364,16.7 -2.92876,31c-1.19512,14.3 -2.55774,26.3694 -3.02806,26.82091c-1.24218,1.19249 -51.11936,14.51707 -54.22958,14.48731c-1.44404,-0.0138 -14.32552,-3.22779 -28.62552,-7.14216l-26,-7.11703l-0.95343,-11.19119c-0.52439,-6.15514 -1.32215,-14.94117 -1.7728,-19.5245l-0.81936,-8.33334l-25.2272,0l-25.22721,0l0.0559,5c0.1044,9.35062 6.16783,72.33478 7.04834,73.21528c1.01833,1.01835 97.91224,28.25511 100.89582,28.36171c1.1,0.0393 24.42706,-6.16372 51.83791,-13.78448l-0.00007,0z" stroke-width="1.33333" fill="#f0be25"/>
  <path id="path78" d="m197.10929,536.2011l-79.29473,-22.2011l-17.64265,-197.33334c-9.70346,-108.53333 -17.67083,-199.58333 -17.70527,-202.33333l-0.0626,-5l197.33332,0l197.33333,0l0.0256,3c0.0356,4.18884 -34.67072,395.70379 -35.37772,399.08797c-0.50745,2.42906 -10.07454,5.38483 -80.94498,25.00803c-44.20323,12.23937 -81.26951,22.19028 -82.36951,22.11315c-1.1,-0.0772 -37.68263,-10.13076 -81.29473,-22.34138l-0.00006,0zm147.87439,-29.70081c34.88119,-9.62484 64.07555,-18.17484 64.87636,-19c1.24625,-1.28417 31.37211,-331.45421 31.25089,-342.50029l-0.0402,-3.66667l-80.66666,0l-80.66667,0l0,9.33333l0,9.33334l-46.66671,0c-36.43861,0 -46.66906,0.36529 -46.6776,1.66666c-0.007,0.91667 -0.58701,6.76667 -1.29109,13c-1.70375,15.08355 -14.69797,160.82251 -14.69797,164.84759l0,3.15241l54.66666,0l54.66667,0l0,38.66667c0,30.05784 -0.37107,38.66108 -1.66667,38.64155c-0.91666,-0.0139 -13.36666,-3.22779 -27.66666,-7.14216l-26,-7.11703l-0.95343,-11.19119c-0.52439,-6.15514 -1.32215,-14.94117 -1.7728,-19.5245l-0.81936,-8.33334l-25.2272,0l-25.22721,0l0.0559,5c0.15972,14.30148 6.3465,72.67926 7.79746,73.576c0.8819,0.54504 24.07569,7.2095 51.54174,14.80988l49.93823,13.81888l0,25.06428c0,13.78536 0.41084,25.0643 0.91299,25.0643c0.50213,0 29.45213,-7.87487 64.33333,-17.49971zm-115.89253,-252.47532c1.91684,-20.88627 3.7464,-38.21141 4.06569,-38.50032c0.31928,-0.28889 10.93052,-0.81163 23.58052,-1.16161l23,-0.63635l0,39.13665l0,39.13666l-27.06569,0l-27.06568,0l3.48516,-37.97503z" stroke-width="1.33333" fill="#e4a126"/>
  <path id="path76" d="m207.75019,62l0,-12.66667l18,0l18,0l0,-24.66666l0,-24.66667l12.66667,0l12.66666,0l0,37.33333l0,37.33333l-30.66666,0l-30.66667,0l0,-12.66666zm73.33333,2.66667l0,-10l16.66667,0c9.16667,0 16.66667,-0.33886 16.66667,-0.75302c0,-0.41416 -7.5,-8.88146 -16.66667,-18.81622l-16.66667,-18.0632l0,-8.51712l0,-8.51711l34.66667,0l34.66667,0l0,9.95896l0,9.95896l-16.2745,0.37437l-16.27449,0.37438l16.94116,18.24427l16.94116,18.24428l0,8.75572l0,8.75572l-35.33333,0l-35.33334,0l0,-9.99999z" stroke-width="1.33333" fill="#0e0e0f"/>
 </g>
</svg>