<svg width="841.9000000000001" height="841.9000000000001" xmlns="http://www.w3.org/2000/svg" xml:space="preserve" enableBackground="new 0 0 841.9 841.9" version="1.1">

 <g>
  <title>Layer 1</title>
  <g stroke="null" id="svg_1">
   <path stroke="null" id="svg_2" d="m835.69446,421.03453c0,-54.94984 -68.8141,-107.02537 -174.31779,-139.31897c24.347,-107.5326 13.52611,-193.08527 -34.15344,-220.47565c-10.98997,-6.4249 -23.83977,-9.46828 -37.87312,-9.46828l0,37.70404c7.77752,0 14.03334,1.52169 19.27471,4.39599c22.99439,13.18796 32.9699,63.40366 25.19239,127.99085c-1.85984,15.89318 -4.90322,32.63175 -8.6229,49.70847c-33.13898,-8.11567 -69.32133,-14.3715 -107.36353,-18.42933c-22.82532,-31.27914 -46.49602,-59.68398 -70.33579,-84.53821c55.11891,-51.23015 106.8563,-79.29684 142.02419,-79.29684l0,-37.70404c0,0 0,0 0,0c-46.49602,0 -107.36353,33.13898 -168.90734,90.62496c-61.54382,-57.14783 -122.41133,-89.94865 -168.90734,-89.94865l0,37.70404c34.99882,0 86.90528,27.89761 142.02419,78.78961c-23.6707,24.85423 -47.3414,53.09 -69.82856,84.36913c-38.21127,4.05783 -74.39362,10.31366 -107.5326,18.59841c-3.88876,-16.90764 -6.76306,-33.30805 -8.79197,-49.03216c-7.94659,-64.58719 1.85984,-114.80289 24.68516,-128.15993c5.07229,-3.04338 11.66627,-4.39599 19.44379,-4.39599l0,-37.70404c0,0 0,0 0,0c-14.20242,0 -27.05223,3.04338 -38.21127,9.46828c-47.51047,27.39038 -58.16229,112.77397 -33.64621,219.96842c-105.16553,32.46267 -173.64148,84.36913 -173.64148,139.14989c0,54.94984 68.8141,107.02537 174.31779,139.31897c-24.347,107.5326 -13.52611,193.08527 34.15344,220.47565c10.98997,6.4249 23.83977,9.46828 38.04219,9.46828c46.49602,0 107.36353,-33.13898 168.90734,-90.62496c61.54382,57.14783 122.41133,89.94865 168.90734,89.94865c14.20242,0 27.05223,-3.04338 38.21127,-9.46828c47.51047,-27.39038 58.16229,-112.77397 33.64621,-219.96842c104.82738,-32.2936 173.30333,-84.36913 173.30333,-139.14989zm-220.1375,-112.77397c-6.25583,21.81086 -14.03334,44.29802 -22.82532,66.78519c-6.93213,-13.52611 -14.20242,-27.05223 -22.14901,-40.57834c-7.77752,-13.52611 -16.06226,-26.71407 -24.347,-39.56388c24.00885,3.5506 47.17232,7.94659 69.32133,13.35704zm-77.437,180.06639c-13.18796,22.82532 -26.71407,44.4671 -40.74742,64.58719c-25.19239,2.19799 -50.72293,3.38153 -76.42254,3.38153c-25.53054,0 -51.06108,-1.18353 -76.08439,-3.21245c-14.03334,-20.12009 -27.72853,-41.5928 -40.91649,-64.24904c-12.84981,-22.14901 -24.51608,-44.63617 -35.1679,-67.29241c10.48274,-22.65624 22.31809,-45.31248 34.99882,-67.46149c13.18796,-22.82532 26.71407,-44.4671 40.74742,-64.58719c25.19239,-2.19799 50.72293,-3.38153 76.42254,-3.38153c25.53054,0 51.06108,1.18353 76.08439,3.21245c14.03334,20.12009 27.72853,41.5928 40.91649,64.24904c12.84981,22.14901 24.51608,44.63617 35.1679,67.29241c-10.65181,22.65624 -22.31809,45.31248 -34.99882,67.46149zm54.61168,-21.97993c9.13013,22.65624 16.90764,45.31248 23.33255,67.29241c-22.14901,5.41045 -45.48156,9.97551 -69.65948,13.52611c8.28474,-13.01888 16.56949,-26.37592 24.347,-40.07111c7.77752,-13.52611 15.0478,-27.2213 21.97993,-40.74742zm-171.44349,180.40454c-15.72411,-16.23134 -31.44821,-34.32251 -47.00324,-54.10445c15.21688,0.67631 30.77191,1.18353 46.49602,1.18353c15.89318,0 31.61729,-0.33815 47.00324,-1.18353c-15.21688,19.78194 -30.94098,37.87312 -46.49602,54.10445zm-125.79286,-99.58601c-24.00885,-3.5506 -47.17232,-7.94659 -69.32133,-13.35704c6.25583,-21.81086 14.03334,-44.29802 22.82532,-66.78519c6.93213,13.52611 14.20242,27.05223 22.14901,40.57834c7.94659,13.52611 16.06226,26.71407 24.347,39.56388zm124.94747,-351.84803c15.72411,16.23134 31.44821,34.32251 47.00324,54.10445c-15.21688,-0.67631 -30.77191,-1.18353 -46.49602,-1.18353c-15.89318,0 -31.61729,0.33815 -47.00324,1.18353c15.21688,-19.78194 30.94098,-37.87312 46.49602,-54.10445zm-125.11655,99.58601c-8.28474,13.01888 -16.56949,26.37592 -24.347,40.07111c-7.77752,13.52611 -15.0478,27.05223 -21.97993,40.57834c-9.13013,-22.65624 -16.90764,-45.31248 -23.33255,-67.29241c22.14901,-5.24137 45.48156,-9.80643 69.65948,-13.35704zm-153.01416,211.68368c-59.85305,-25.53054 -98.57155,-59.00767 -98.57155,-85.55267c0,-26.545 38.7185,-60.1912 98.57155,-85.55267c14.54057,-6.25583 30.43376,-11.83535 46.83417,-17.07672c9.63736,33.13898 22.31809,67.63057 38.04219,102.96754c-15.55503,35.1679 -28.06669,69.49041 -37.53496,102.46031c-16.73857,-5.24137 -32.63175,-10.98997 -47.3414,-17.24579zm90.96311,241.6102c-22.99439,-13.18796 -32.9699,-63.40366 -25.19239,-127.99085c1.85984,-15.89318 4.90322,-32.63175 8.6229,-49.70847c33.13898,8.11567 69.32133,14.3715 107.36353,18.42933c22.82532,31.27914 46.49602,59.68398 70.33579,84.53821c-55.11891,51.23015 -106.8563,79.29684 -142.02419,79.29684c-7.60844,-0.16908 -14.03334,-1.69076 -19.10564,-4.56506zm401.04926,-128.83623c7.94659,64.58719 -1.85984,114.80289 -24.68516,128.15993c-5.07229,3.04338 -11.66627,4.39599 -19.44379,4.39599c-34.99882,0 -86.90528,-27.89761 -142.02419,-78.78961c23.6707,-24.85423 47.3414,-53.09 69.82856,-84.36913c38.21127,-4.05783 74.39362,-10.31366 107.5326,-18.59841c3.88876,17.07672 6.93213,33.47713 8.79197,49.20124zm65.09442,-112.77397c-14.54057,6.25583 -30.43376,11.83535 -46.83417,17.07672c-9.63736,-33.13898 -22.31809,-67.63057 -38.04219,-102.96754c15.55503,-35.1679 28.06669,-69.49041 37.53496,-102.46031c16.73857,5.24137 32.63175,10.98997 47.51047,17.24579c59.85305,25.53054 98.57155,59.00767 98.57155,85.55267c-0.16908,26.545 -38.88758,60.1912 -98.74063,85.55267z" fill="#61DAFB"/>
   <polygon stroke="null" id="svg_3" points="251.535401535034,52.27885818481445 251.535401535034,52.27885818481445 251.535401535034,52.27885818481445 " fill="#61DAFB"/>
   <circle stroke="null" id="svg_4" r="77.26793" cy="421.03453" cx="420.78093" fill="#61DAFB"/>
   <polygon stroke="null" id="svg_5" points="589.1810771942137,51.7716178894043 589.1810771942137,51.7716178894043 589.1810771942137,51.7716178894043 " fill="#61DAFB"/>
  </g>
 </g>
</svg>