<svg xmlns="http://www.w3.org/2000/svg" width="613pt" height="609pt" viewBox="0 0 613 609" preserveAspectRatio="xMidYMid meet">
  <g transform="translate(0,609) scale(0.1,-0.1)" fill="white" stroke="none">
    <path d="M0 3045 l0 -3045 3065 0 3065 0 0 3045 0 3045 -3065 0 -3065 0 0
    -3045z m5794 2693 c8 -30 8 -5372 0 -5392 -6 -15 -255 -16 -2729 -16 -2474 0
    -2723 1 -2729 16 -8 20 -8 5362 0 5392 l6 22 2723 0 2723 0 6 -22z"/>
    <path d="M2324 5275 c-763 -112 -1351 -630 -1519 -1338 -38 -160 -48 -277 -42
    -479 7 -292 58 -495 187 -753 174 -350 439 -611 795 -786 233 -114 530 -189
    747 -189 l58 0 0 -470 0 -470 686 0 c570 0 704 3 793 16 201 29 341 73 513
    161 395 201 664 553 760 996 19 88 22 133 23 322 0 242 -10 316 -67 495 -155
    487 -566 857 -1078 969 -178 38 -235 41 -941 41 l-689 0 0 -750 0 -750 -39 0
    c-64 0 -210 29 -303 60 -429 144 -741 505 -824 955 -22 119 -22 322 0 439 96
    504 455 875 956 987 411 92 858 -44 1188 -360 l63 -60 175 220 176 219 -52 48
    c-281 253 -646 422 -1031 477 -128 18 -410 18 -535 0z m1729 -1977 c244 -67
    451 -212 586 -411 51 -76 118 -224 141 -315 140 -555 -136 -1100 -647 -1271
    -134 -45 -210 -51 -654 -51 l-419 0 2 271 3 271 124 43 c259 91 509 240 704
    422 26 25 47 49 45 53 -2 5 -69 82 -149 172 -80 89 -157 176 -171 192 l-25 30
    -74 -63 c-41 -34 -105 -84 -144 -109 -66 -45 -289 -162 -307 -162 -4 0 -8 216
    -8 481 l0 480 448 -3 447 -4 98 -26z"/>
  </g>
</svg>