<svg xmlns="http://www.w3.org/2000/svg" viewBox="0 0 512 512">
  <g>
    <path d="M374.735,30.997c-44.637-2.691-84.639,15.013-112.928,44.299c-3.175,3.287-8.418,3.287-11.593,0   c-28.287-29.285-68.286-46.988-112.92-44.3C51.909,36.14-8.782,115.491,1.122,200.455   c14.249,122.236,136.586,226.726,206.461,277.236c4.522,3.269,10.351,4.368,15.646,2.609c10.577-3.514,13.76-15.983,8.327-28.595   c-21.379-49.623,29.621-70.723,20.321-119.258c0,0,52.009,22.534,38.232,82.509c-5.46,23.767-1.875,39.038,3.54,48.584   c4.774,8.416,15.819,10.738,23.554,4.925c71.416-53.667,181.426-153.934,193.9-269.83   C520.179,114.31,459.394,36.102,374.735,30.997z" fill="#FF8086" />
    <path d="M323.69,408.394c32.725-54.178,35.193-88.742,34.014-103.839c-0.377-4.83-4.853-8.216-9.63-7.408   l-25.417,4.302c5.14-107.538-46.903-159.407-71.62-177.833c-5.162-3.848-12.541-0.449-13.004,5.972   c-4.532,62.863-43.504,113.481-43.504,113.481l-13.845-17.222c-3.659-4.551-10.77-3.989-13.635,1.1   c-6.663,11.835-16.652,32.775-19.879,56.592c-7.221,53.291,16.519,88.7,42.709,127.439c12.399,18.341-4.767,43.483-27.444,31.725   l0,0c16.12,13.409,31.64,25.399,45.035,35.086c4.486,3.244,10.265,4.403,15.536,2.71c10.704-3.44,14.01-16.117,8.55-28.792   c-19.003-44.109,19.181-65.682,21.37-104.019c0.386-6.77,8.384-10.109,13.634-5.817c14.202,11.609,32.376,34.665,23.549,73.088   c-5.465,23.79-1.825,39.043,3.556,48.612c4.805,8.544,16.205,10.411,23.983,4.564c10.771-8.098,22.622-17.439,34.706-27.584l0,0   C330.912,451.269,312.066,427.639,323.69,408.394z" fill="#FFE07D" />
    <path d="M199.823,472.177c2.597,1.921,5.163,3.808,7.644,5.604c4.485,3.248,10.267,4.409,15.538,2.715   c10.704-3.44,14.01-16.117,8.55-28.792c-19.043-44.201,19.35-65.576,21.383-104.258c0.339-6.447,8.363-9.868,13.562-5.627   c14.21,11.593,32.447,34.66,23.608,73.136c-5.465,23.79-1.83,39.046,3.556,48.612c4.82,8.56,16.225,10.396,24.002,4.549   c2.919-2.195,6.156-4.675,9.192-7.022c-15.556-1.13-26.99-7.113-22.284-29.97c6.827-33.158,21.937-108.197-45.886-145.626   c-5.505-3.038-12.24,0.931-12.244,7.218c-0.008,15.562-3.271,38.31-23.081,32.417c-4.238-1.261-8.816,1.111-10.176,5.318   c-5.379,16.646-14.779,56.108-1.092,99.122C220.057,454.6,215.34,471.653,199.823,472.177z" fill="#FFD064" />
    <path d="M168.082,419.387c2.405-3.113,2.709-7.316,0.601-10.637   c-23.927-37.694-76.992-130.71-85.444-218.456c-6.258-64.97,22.062-126.517,68.396-159.459c-4.699-0.175-9.502-0.13-14.318,0.16   C53.008,36.06-7.84,113.699,0.821,197.715c7.89,76.538,58.353,146.247,112.391,200.346c18.207,11.209,33.419,19.128,43.489,24.008   c3.913,1.897,8.638,0.872,11.295-2.57C168.024,419.461,168.053,419.424,168.082,419.387z" fill="#E5646E" />
  </g>
</svg>


