<svg xmlns="http://www.w3.org/2000/svg" viewBox="0 0 512 512">
  <linearGradient id="SVGID_1_" gradientUnits="userSpaceOnUse" x1="256" x2="256" y1="497" y2="0">
    <stop offset="0" stopColor="#fd5900"/><stop offset="1" stopColor="#ffde00"/>
  </linearGradient>
  <linearGradient id="SVGID_2_" gradientUnits="userSpaceOnUse" x1="256" x2="256" y1="512" y2="0">
    <stop offset="0" stopColor="#ffe59a"/><stop offset="1" stopColor="#ffffd5"/>
  </linearGradient>
  <g>
    <g>
      <g>
        <path d="m471.742 117.045c-5.566-2.329-12.041-1.04-16.348 3.252l-60 60c-2.813 2.813-4.395 6.621-4.395 10.605v291.098c0 8.291 6.709 15 15 15h60c8.291 0 15-6.709 15-15v-351.098c.001-6.064-3.661-11.543-9.257-13.857zm-120 120c-5.566-2.329-12.041-1.055-16.348 3.252l-60 60c-2.813 2.813-4.395 6.621-4.395 10.605v171.098c0 8.291 6.709 15 15 15h60c8.291 0 15-6.709 15-15v-231.098c.001-6.064-3.661-11.543-9.257-13.857zm-117.392 58.696-52.5-35.112c-6.035-3.999-14.121-3.208-19.16 2.08l-7.5 7.808c-2.695 2.783-4.189 6.519-4.189 10.386v201.097c0 8.291 6.709 15 15 15h60c8.291 0 15-6.709 15-15v-173.793c-.001-5.01-2.491-9.683-6.651-12.466zm-122.608 31.304c-5.596-2.358-12.07-1.04-16.348 3.252l-60 60c-2.812 2.812-4.394 6.621-4.394 10.605v81.098c0 8.291 6.709 15 15 15h60c8.291 0 15-6.709 15-15v-141.098c0-6.064-3.662-11.543-9.258-13.857zm188.35-192.038c4.6-3.34 6.914-8.994 5.977-14.59l-5.244-31.523 22.764-22.412c4.043-3.984 5.508-9.917 3.75-15.322s-6.416-9.36-12.041-10.21l-31.582-4.746-14.298-28.579c-5.098-10.166-21.738-10.166-26.836 0l-14.297 28.579-31.582 4.746c-5.625.85-10.283 4.805-12.041 10.21s-.293 11.338 3.75 15.322l22.764 22.412-5.244 31.523c-.938 5.596 1.377 11.25 5.977 14.59s10.723 3.765 15.732 1.187l28.359-14.722 28.359 14.722c4.988 2.595 11.115 2.186 15.733-1.187z" fill="url(#SVGID_1_)"/>
      </g>
    </g>
    <g>
      <g>
        <path d="m497 0h-60c-8.291 0-15 6.709-15 15s6.709 15 15 15h23.789l-206.693 206.693-79.776-53.173c-5.977-3.97-13.887-3.179-18.926 1.875l-151 151c-5.859 5.859-5.859 15.352 0 21.211s15.351 5.859 21.211 0l142.299-142.299 79.775 53.174c5.977 3.999 13.887 3.164 18.926-1.875l215.395-215.395v23.789c0 8.291 6.709 15 15 15s15-6.709 15-15v-60c0-8.206-6.727-15-15-15zm0 482h-482c-8.291 0-15 6.709-15 15s6.709 15 15 15h482c8.291 0 15-6.709 15-15s-6.709-15-15-15z" fill="url(#SVGID_2_)"/>
      </g>
    </g>
  </g>
</svg>