<svg xmlns="http://www.w3.org/2000/svg" viewBox="0 0 64 64"><defs><style>.cls-1{isolation:isolate;}.cls-2{mix-blend-mode:multiply;}.cls-3{fill:#ea6e60;}.cls-4{fill:#f4cd51;}.cls-5{fill:#f5f1e0;}.cls-6{fill:none;stroke:#3b342f;stroke-linecap:round;stroke-linejoin:round;stroke-width:2px;}</style></defs><title>shield</title><g class="cls-1"><g id="icons" class="cls-2"><g id="_Group_" data-name="&lt;Group&gt;"><path class="cls-3" d="M32,32V55.75C25.54,53.12,15.29,44.47,12,32Z"/><path class="cls-3" d="M53,18.45V24a31,31,0,0,1-1,8H32V8c1.23,0,3.36,1.71,5.43,3.36C41.31,14.47,46.12,18.33,53,18.45Z"/><path class="cls-4" d="M52,32c-3.25,12.47-13.5,21.12-20,23.75V32Z"/><path class="cls-4" d="M32,8V32H12a31,31,0,0,1-1-8V18.45c6.88-.12,11.69-4,15.57-7.09C28.64,9.71,30.77,8,32,8Z"/><path class="cls-5" d="M57,14V24c0,19-15.38,33-25,36C22.38,57,7,43,7,24V14C19.5,17,25.27,4,32,4S44.5,17,57,14ZM53,24V18.45c-6.88-.12-11.69-4-15.57-7.09C35.36,9.71,33.23,8,32,8s-3.36,1.71-5.43,3.36c-3.88,3.11-8.69,7-15.57,7.09V24a31,31,0,0,0,1,8c3.25,12.47,13.5,21.12,20,23.75C38.46,53.12,48.71,44.47,52,32A31,31,0,0,0,53,24Z"/><path class="cls-6" d="M32,4C25.27,4,19.5,17,7,14V24C7,43,22.38,57,32,60c9.62-3,25-17,25-36V14C44.5,17,38.73,4,32,4Z"/><path class="cls-6" d="M32,55.75C25.54,53.12,15.29,44.47,12,32a31,31,0,0,1-1-8V18.45c6.88-.12,11.69-4,15.57-7.09C28.64,9.71,30.77,8,32,8s3.36,1.71,5.43,3.36c3.88,3.11,8.69,7,15.57,7.09V24a31,31,0,0,1-1,8C48.71,44.47,38.46,53.12,32,55.75Z"/><polyline class="cls-6" points="32 8 32 32 32 55.75"/><polyline class="cls-6" points="51.96 32 32 32 12.04 32"/></g></g></g></svg>