<svg width="1484.864" height="146.779" viewBox="0 0 1484.864 146.779" xmlns="http://www.w3.org/2000/svg"><g id="svgGroup" stroke-linecap="round" fill-rule="nonzero" font-size="9pt" stroke="#000000" stroke-width="0" fill="#e6e6e6" style="stroke:#000000;stroke-width:0;fill:#e6e6e6"><path d="M 919.238 144.825 L 898.535 144.825 L 857.422 25.587 L 856.543 25.587 A 359.196 359.196 0 0 1 856.696 27.772 Q 856.934 31.324 857.227 36.524 Q 857.617 43.458 857.91 51.368 A 423.817 423.817 0 0 1 858.185 62.849 A 369.305 369.305 0 0 1 858.203 66.505 L 858.203 144.825 L 836.914 144.825 L 836.914 2.051 L 869.824 2.051 L 909.375 116.016 L 909.961 116.016 L 950.879 2.051 L 983.691 2.051 L 983.691 144.825 L 961.328 144.825 L 961.328 65.333 A 395.584 395.584 0 0 1 961.389 58.521 A 497.162 497.162 0 0 1 961.572 51.173 A 876.447 876.447 0 0 1 961.841 43.751 A 746.007 746.007 0 0 1 962.158 36.719 A 8231.138 8231.138 0 0 0 962.32 33.472 Q 962.549 28.858 962.695 25.782 L 961.914 25.782 L 919.238 144.825 Z M 1251.953 2.051 L 1251.953 144.825 L 1223.145 144.825 L 1153.223 30.86 L 1152.344 30.86 A 766.048 766.048 0 0 1 1152.722 36.793 A 905.046 905.046 0 0 1 1153.076 43.067 A 765.588 765.588 0 0 1 1153.631 55.495 A 835.071 835.071 0 0 1 1153.662 56.348 A 1750.171 1750.171 0 0 1 1154.102 70.216 L 1154.102 144.825 L 1132.813 144.825 L 1132.813 2.051 L 1161.426 2.051 L 1231.25 115.235 L 1231.934 115.235 A 1489.877 1489.877 0 0 0 1231.744 110.597 Q 1231.644 108.225 1231.526 105.593 A 2555.342 2555.342 0 0 0 1231.445 103.809 A 1321.927 1321.927 0 0 1 1230.97 92.194 A 1457.274 1457.274 0 0 1 1230.908 90.479 A 665.815 665.815 0 0 1 1230.593 78.767 A 602.075 602.075 0 0 1 1230.566 77.149 L 1230.566 2.051 L 1251.953 2.051 Z M 390.332 2.051 L 390.332 144.825 L 366.992 144.825 L 366.992 80.372 L 301.172 80.372 L 301.172 144.825 L 277.734 144.825 L 277.734 2.051 L 301.172 2.051 L 301.172 60.45 L 366.992 60.45 L 366.992 2.051 L 390.332 2.051 Z M 569.922 125.001 L 569.922 144.825 L 489.063 144.825 L 489.063 2.051 L 569.922 2.051 L 569.922 21.778 L 512.5 21.778 L 512.5 60.548 L 566.309 60.548 L 566.309 80.176 L 512.5 80.176 L 512.5 125.001 L 569.922 125.001 Z M 806.152 125.001 L 806.152 144.825 L 725.293 144.825 L 725.293 2.051 L 806.152 2.051 L 806.152 21.778 L 748.73 21.778 L 748.73 60.548 L 802.539 60.548 L 802.539 80.176 L 748.73 80.176 L 748.73 125.001 L 806.152 125.001 Z M 1102.051 125.001 L 1102.051 144.825 L 1021.191 144.825 L 1021.191 2.051 L 1102.051 2.051 L 1102.051 21.778 L 1044.629 21.778 L 1044.629 60.548 L 1098.438 60.548 L 1098.438 80.176 L 1044.629 80.176 L 1044.629 125.001 L 1102.051 125.001 Z M 682.52 2.051 L 706.543 2.051 L 656.641 144.825 L 631.836 144.825 L 581.934 2.051 L 605.957 2.051 L 636.035 91.505 A 133.571 133.571 0 0 1 637.095 94.668 Q 638.007 97.498 639.014 100.977 A 316.122 316.122 0 0 1 642.041 112.208 Q 643.258 117.075 644.006 121.005 A 105.424 105.424 0 0 1 644.238 122.266 A 120.029 120.029 0 0 1 645.043 118.178 Q 645.49 116.09 646.05 113.776 A 210.499 210.499 0 0 1 646.436 112.208 A 405.107 405.107 0 0 1 649.414 100.977 Q 650.977 95.411 652.344 91.407 L 682.52 2.051 Z M 1393.457 139.161 L 1393.457 117.091 A 138.694 138.694 0 0 0 1403.884 121.143 A 177.221 177.221 0 0 0 1412.891 123.975 A 79.079 79.079 0 0 0 1434.766 127.051 A 56.967 56.967 0 0 0 1441.083 126.722 Q 1446.076 126.164 1449.854 124.659 A 22.705 22.705 0 0 0 1454.3 122.326 A 16.387 16.387 0 0 0 1458.789 117.823 A 17.751 17.751 0 0 0 1461.596 109.802 A 22.483 22.483 0 0 0 1461.719 107.423 A 19.552 19.552 0 0 0 1461.017 102.071 A 15.642 15.642 0 0 0 1458.301 96.68 A 23.581 23.581 0 0 0 1454.8 93.103 Q 1451.978 90.741 1447.998 88.624 A 132.62 132.62 0 0 0 1442.347 85.802 Q 1439.789 84.594 1436.893 83.334 A 267.44 267.44 0 0 0 1430.762 80.762 A 113.418 113.418 0 0 1 1417.334 74.317 A 54.292 54.292 0 0 1 1405.957 65.821 A 35.899 35.899 0 0 1 1398.096 54.249 A 33.978 33.978 0 0 1 1395.848 46.466 Q 1395.254 42.968 1395.217 39.007 A 56.611 56.611 0 0 1 1395.215 38.477 A 42.118 42.118 0 0 1 1396.408 28.225 A 32.649 32.649 0 0 1 1401.025 17.774 A 35.646 35.646 0 0 1 1413.475 6.536 A 44.685 44.685 0 0 1 1417.432 4.591 Q 1428.027 0.001 1442.188 0.001 A 96.026 96.026 0 0 1 1457.006 1.108 A 83.288 83.288 0 0 1 1463.33 2.344 Q 1473.242 4.688 1482.813 8.985 L 1475.391 27.833 A 140.107 140.107 0 0 0 1463.56 23.557 A 119.145 119.145 0 0 0 1458.35 22.071 A 66.587 66.587 0 0 0 1441.504 19.923 A 40.857 40.857 0 0 0 1435.87 20.29 Q 1432.96 20.695 1430.498 21.549 A 22.615 22.615 0 0 0 1428.906 22.169 A 20.132 20.132 0 0 0 1424.617 24.659 A 15.814 15.814 0 0 0 1421.045 28.467 A 16.055 16.055 0 0 0 1418.549 35.236 A 20.82 20.82 0 0 0 1418.359 38.087 A 21.028 21.028 0 0 0 1418.907 43.004 A 15.627 15.627 0 0 0 1421.436 48.585 Q 1423.909 52 1428.591 54.942 A 43.177 43.177 0 0 0 1431.006 56.348 Q 1437.5 59.864 1447.754 64.161 Q 1457.909 68.357 1465.431 72.914 A 87.305 87.305 0 0 1 1467.822 74.415 A 43.063 43.063 0 0 1 1475.501 80.714 A 35.482 35.482 0 0 1 1480.469 87.257 A 30.18 30.18 0 0 1 1483.832 95.96 Q 1484.67 99.663 1484.827 103.949 A 54.85 54.85 0 0 1 1484.863 105.958 A 43.611 43.611 0 0 1 1483.501 117.087 A 34.913 34.913 0 0 1 1478.662 127.833 A 37.168 37.168 0 0 1 1466.339 139.185 A 47.549 47.549 0 0 1 1460.889 141.895 A 58.979 58.979 0 0 1 1448.206 145.557 Q 1441.309 146.778 1433.301 146.778 A 126.051 126.051 0 0 1 1421.967 146.284 A 111.242 111.242 0 0 1 1418.359 145.899 Q 1411.23 145.02 1404.932 143.311 A 75.022 75.022 0 0 1 1397.541 140.906 A 61.616 61.616 0 0 1 1393.457 139.161 Z M 247.07 120.313 L 247.07 140.235 A 91.005 91.005 0 0 1 229.492 145.216 Q 220.605 146.778 208.984 146.778 A 87.389 87.389 0 0 1 193.629 145.501 Q 181.708 143.372 172.705 137.696 Q 158.301 128.614 151.221 112.11 A 84.542 84.542 0 0 1 145.594 92.365 A 117.21 117.21 0 0 1 144.141 73.438 A 101.752 101.752 0 0 1 145.683 55.38 A 83.607 83.607 0 0 1 148.633 43.751 A 69.943 69.943 0 0 1 156.748 26.951 A 62.49 62.49 0 0 1 161.719 20.46 Q 170.313 10.645 182.959 5.323 A 66.692 66.692 0 0 1 199.268 0.879 A 87.589 87.589 0 0 1 211.914 0.001 A 94.003 94.003 0 0 1 233.057 2.393 A 89.512 89.512 0 0 1 248.958 7.603 A 80.871 80.871 0 0 1 252.344 9.18 L 244.141 28.516 A 120.047 120.047 0 0 0 228.613 22.462 A 55.86 55.86 0 0 0 211.816 19.923 A 48.484 48.484 0 0 0 201.684 20.939 A 38.864 38.864 0 0 0 193.506 23.633 Q 185.449 27.344 179.883 34.327 Q 174.316 41.309 171.387 51.221 A 69.804 69.804 0 0 0 169.018 63.16 A 92.202 92.202 0 0 0 168.457 73.536 A 98.619 98.619 0 0 0 169.291 86.718 Q 170.435 95.184 173.145 102.1 Q 177.832 114.063 187.402 120.46 A 36.359 36.359 0 0 0 199.582 125.588 Q 204.408 126.698 210.006 126.836 A 65.184 65.184 0 0 0 211.621 126.856 A 87.985 87.985 0 0 0 229.297 125.098 A 152.09 152.09 0 0 0 242.447 121.769 A 176.077 176.077 0 0 0 247.07 120.313 Z M 132.129 144.825 L 107.227 144.825 L 93.262 105.176 L 38.672 105.176 L 24.707 144.825 L 0 144.825 L 53.125 1.466 L 79.102 1.466 L 132.129 144.825 Z M 45.215 85.059 L 87.207 85.059 L 73.633 45.997 Q 72.852 43.458 71.387 38.819 A 851.744 851.744 0 0 1 68.457 29.346 A 1499.713 1499.713 0 0 1 67.427 25.934 Q 67.027 24.601 66.674 23.415 A 712.786 712.786 0 0 1 66.016 21.192 Q 65.039 25.196 63.623 30.128 A 588.914 588.914 0 0 1 62.231 34.901 A 482.912 482.912 0 0 1 60.889 39.356 Q 59.879 42.646 59.242 44.791 A 252.341 252.341 0 0 0 58.887 45.997 L 45.215 85.059 Z M 1338.965 21.973 L 1338.965 144.825 L 1315.43 144.825 L 1315.43 21.973 L 1273.633 21.973 L 1273.633 2.051 L 1380.664 2.051 L 1380.664 21.973 L 1338.965 21.973 Z M 451.465 144.825 L 428.027 144.825 L 428.027 2.051 L 451.465 2.051 L 451.465 144.825 Z"/></g></svg>