<svg width="708.154" height="95.215" viewBox="0 0 708.154 95.215" xmlns="http://www.w3.org/2000/svg"><g id="svgGroup" stroke-linecap="round" fill-rule="evenodd" font-size="9pt" stroke="#000" stroke-width="0" fill="#e5dde3" style="stroke:#000;stroke-width:0;fill:#e5dde3"><path d="M 347.559 22.852 L 347.559 94.238 L 335.547 94.238 L 298.584 35.742 L 298.193 35.742 Q 298.34 38.379 298.535 41.528 Q 298.73 44.678 298.853 48.12 A 322.874 322.874 0 0 1 299.023 55.078 L 299.023 94.238 L 289.844 94.238 L 289.844 22.852 L 301.758 22.852 L 338.574 81.055 L 338.916 81.055 A 4966.198 4966.198 0 0 0 338.864 79.916 Q 338.782 78.113 338.672 75.732 A 532.407 532.407 0 0 1 338.531 72.467 A 626.662 626.662 0 0 1 338.403 69.019 A 205.546 205.546 0 0 1 338.293 64.324 A 174.126 174.126 0 0 1 338.281 62.305 L 338.281 22.852 L 347.559 22.852 Z M 708.154 22.852 L 708.154 94.238 L 696.143 94.238 L 659.18 35.742 L 658.789 35.742 Q 658.936 38.379 659.131 41.528 Q 659.326 44.678 659.448 48.12 A 322.874 322.874 0 0 1 659.619 55.078 L 659.619 94.238 L 650.439 94.238 L 650.439 22.852 L 662.354 22.852 L 699.17 81.055 L 699.512 81.055 A 4966.198 4966.198 0 0 0 699.46 79.916 Q 699.377 78.113 699.268 75.732 A 532.407 532.407 0 0 1 699.127 72.467 A 626.662 626.662 0 0 1 698.999 69.019 A 205.546 205.546 0 0 1 698.889 64.324 A 174.126 174.126 0 0 1 698.877 62.305 L 698.877 22.852 L 708.154 22.852 Z M 163.721 85.596 L 163.721 94.238 L 123.633 94.238 L 123.633 22.852 L 163.721 22.852 L 163.721 31.445 L 133.643 31.445 L 133.643 52.686 L 161.914 52.686 L 161.914 61.182 L 133.643 61.182 L 133.643 85.596 L 163.721 85.596 Z M 274.268 85.596 L 274.268 94.238 L 234.18 94.238 L 234.18 22.852 L 274.268 22.852 L 274.268 31.445 L 244.189 31.445 L 244.189 52.686 L 272.461 52.686 L 272.461 61.182 L 244.189 61.182 L 244.189 85.596 L 274.268 85.596 Z M 174.707 91.65 L 174.707 82.178 A 66.9 66.9 0 0 0 178.931 83.734 Q 181.338 84.536 184.082 85.278 A 41.867 41.867 0 0 0 195.068 86.719 A 30.186 30.186 0 0 0 198.544 86.53 Q 200.323 86.323 201.834 85.891 A 15.478 15.478 0 0 0 203.345 85.376 A 13.273 13.273 0 0 0 205.876 84.047 A 9.693 9.693 0 0 0 208.398 81.592 A 9.401 9.401 0 0 0 209.994 77.43 A 12.31 12.31 0 0 0 210.107 75.732 A 11.638 11.638 0 0 0 209.812 73.045 A 8.579 8.579 0 0 0 208.447 69.995 Q 206.787 67.676 203.198 65.723 Q 200.759 64.395 197.293 62.955 A 116.489 116.489 0 0 0 193.799 61.572 A 51.638 51.638 0 0 1 189.019 59.579 A 43.04 43.04 0 0 1 186.426 58.228 A 27.594 27.594 0 0 1 182.457 55.518 A 23.687 23.687 0 0 1 180.688 53.906 A 17.069 17.069 0 0 1 176.953 48.169 A 17.945 17.945 0 0 1 175.887 44.144 A 24.141 24.141 0 0 1 175.635 40.576 Q 175.635 34.668 178.54 30.469 A 17.689 17.689 0 0 1 184.755 24.971 A 22.13 22.13 0 0 1 186.67 24.048 A 27.096 27.096 0 0 1 193.073 22.251 A 36.604 36.604 0 0 1 198.779 21.826 A 50.624 50.624 0 0 1 205.564 22.265 A 42.488 42.488 0 0 1 209.351 22.949 A 52.014 52.014 0 0 1 218.701 26.025 L 215.527 34.326 A 62.781 62.781 0 0 0 207.178 31.543 A 34.931 34.931 0 0 0 198.486 30.469 A 23.509 23.509 0 0 0 195.441 30.655 Q 193.22 30.946 191.479 31.689 A 10.941 10.941 0 0 0 189.102 33.059 A 8.686 8.686 0 0 0 187.134 35.156 A 8.909 8.909 0 0 0 185.741 38.97 A 11.526 11.526 0 0 0 185.645 40.479 A 12.675 12.675 0 0 0 185.893 43.055 Q 186.242 44.74 187.085 46.055 A 7.92 7.92 0 0 0 187.207 46.24 Q 188.77 48.535 192.139 50.391 A 49.342 49.342 0 0 0 194.825 51.756 Q 197.456 53.001 200.928 54.346 Q 207.031 56.689 211.304 59.326 A 21.718 21.718 0 0 1 215.07 62.231 A 17.31 17.31 0 0 1 217.822 65.674 A 14.638 14.638 0 0 1 219.507 69.873 Q 219.946 71.704 220.041 73.833 A 27.001 27.001 0 0 1 220.068 75.049 A 21.359 21.359 0 0 1 219.399 80.512 A 16.894 16.894 0 0 1 216.919 85.913 A 18.968 18.968 0 0 1 210.474 91.652 A 24.028 24.028 0 0 1 208.057 92.822 Q 202.701 95.065 195.457 95.205 A 50.355 50.355 0 0 1 194.482 95.215 A 67.976 67.976 0 0 1 188.756 94.981 A 59.382 59.382 0 0 1 186.938 94.8 A 54.687 54.687 0 0 1 182.653 94.138 A 45.017 45.017 0 0 1 180.273 93.604 A 33.794 33.794 0 0 1 176.827 92.538 A 27.288 27.288 0 0 1 174.707 91.65 Z M 60.84 22.852 L 80.518 22.852 A 60.675 60.675 0 0 1 86.603 23.138 Q 91.665 23.65 95.435 25.073 A 20.425 20.425 0 0 1 99.937 27.406 A 15.539 15.539 0 0 1 104.199 31.812 A 17.446 17.446 0 0 1 106.436 37.247 Q 107.08 39.985 107.08 43.262 A 24.806 24.806 0 0 1 106.751 47.414 Q 106.359 49.722 105.5 51.63 A 14.463 14.463 0 0 1 105.078 52.49 A 18.21 18.21 0 0 1 100.621 58.023 A 17.558 17.558 0 0 1 99.829 58.643 A 27.998 27.998 0 0 1 92.871 62.402 L 112.842 94.238 L 101.367 94.238 L 83.984 65.039 L 70.85 65.039 L 70.85 94.238 L 60.84 94.238 L 60.84 22.852 Z M 477.49 94.238 L 466.992 94.238 L 459.082 72.998 L 431.104 72.998 L 423.291 94.238 L 412.891 94.238 L 440.137 22.559 L 450.391 22.559 L 477.49 94.238 Z M 389.99 31.494 L 389.99 94.238 L 379.932 94.238 L 379.932 31.494 L 358.252 31.494 L 358.252 22.852 L 411.621 22.852 L 411.621 31.494 L 389.99 31.494 Z M 510.498 31.494 L 510.498 94.238 L 500.439 94.238 L 500.439 31.494 L 478.76 31.494 L 478.76 22.852 L 532.129 22.852 L 532.129 31.494 L 510.498 31.494 Z M 634.863 58.447 Q 634.863 66.699 632.764 73.462 A 34.85 34.85 0 0 1 629.4 81.084 A 29.984 29.984 0 0 1 626.538 85.083 A 27.374 27.374 0 0 1 616.332 92.537 A 31.612 31.612 0 0 1 616.235 92.578 A 31.774 31.774 0 0 1 608.859 94.673 A 43.739 43.739 0 0 1 601.807 95.215 A 45.313 45.313 0 0 1 594.874 94.71 Q 590.685 94.061 587.183 92.578 Q 580.957 89.941 576.855 85.059 A 31.035 31.035 0 0 1 571.752 76.366 A 37.425 37.425 0 0 1 570.728 73.389 A 48.033 48.033 0 0 1 568.998 64.453 A 60.825 60.825 0 0 1 568.701 58.35 A 56.563 56.563 0 0 1 569.469 48.803 A 41.558 41.558 0 0 1 572.314 39.111 Q 575.928 30.859 583.325 26.294 Q 590.723 21.729 601.953 21.729 Q 612.793 21.729 620.117 26.27 Q 627.441 30.811 631.152 39.038 Q 634.837 47.207 634.863 58.289 A 67.203 67.203 0 0 1 634.863 58.447 Z M 0 22.852 L 19.678 22.852 A 54.92 54.92 0 0 1 26.862 23.288 Q 35.288 24.403 39.868 28.369 A 17.937 17.937 0 0 1 45.736 38.697 A 26.927 26.927 0 0 1 46.24 44.043 Q 46.24 48.633 44.775 52.759 Q 43.311 56.885 40.015 60.034 A 19.864 19.864 0 0 1 35.927 63.008 Q 33.994 64.085 31.661 64.906 A 33.189 33.189 0 0 1 31.348 65.015 A 31.144 31.144 0 0 1 26.381 66.234 Q 22.681 66.846 18.164 66.846 L 10.01 66.846 L 10.01 94.238 L 0 94.238 L 0 22.852 Z M 579.199 58.447 A 52.656 52.656 0 0 0 579.629 65.359 Q 580.219 69.806 581.616 73.462 A 22.38 22.38 0 0 0 584.738 79.141 A 18.879 18.879 0 0 0 589.038 83.228 A 18.672 18.672 0 0 0 595.337 85.963 Q 597.897 86.576 600.882 86.657 A 33.918 33.918 0 0 0 601.807 86.67 A 29.388 29.388 0 0 0 607.284 86.188 Q 610.469 85.584 613.019 84.221 A 16.761 16.761 0 0 0 614.648 83.228 A 19.189 19.189 0 0 0 621.001 75.732 A 24.385 24.385 0 0 0 621.973 73.462 Q 624.09 67.75 624.294 60.106 A 61.964 61.964 0 0 0 624.316 58.447 A 52.238 52.238 0 0 0 623.738 50.413 Q 622.554 42.82 618.945 37.817 A 17.158 17.158 0 0 0 608.907 31.173 Q 605.963 30.421 602.427 30.374 A 35.68 35.68 0 0 0 601.953 30.371 A 29.602 29.602 0 0 0 596.485 30.848 Q 593.213 31.463 590.591 32.872 A 17.167 17.167 0 0 0 589.111 33.765 Q 584.082 37.158 581.641 43.433 Q 579.453 49.056 579.226 56.66 A 59.892 59.892 0 0 0 579.199 58.447 Z M 552.979 94.238 L 542.969 94.238 L 542.969 22.852 L 552.979 22.852 L 552.979 94.238 Z M 18.896 31.25 L 10.01 31.25 L 10.01 58.398 L 17.09 58.398 A 45.945 45.945 0 0 0 21.459 58.203 Q 23.588 57.999 25.412 57.583 A 22.576 22.576 0 0 0 27.49 57.007 A 14.461 14.461 0 0 0 30.668 55.533 A 10.909 10.909 0 0 0 33.838 52.539 A 11.157 11.157 0 0 0 35.449 48.975 Q 35.852 47.455 35.953 45.66 A 21.899 21.899 0 0 0 35.986 44.434 A 16.899 16.899 0 0 0 35.581 40.612 Q 34.94 37.851 33.286 35.913 A 10.203 10.203 0 0 0 31.836 34.521 Q 27.85 31.38 19.587 31.255 A 45.759 45.759 0 0 0 18.896 31.25 Z M 79.883 31.348 L 70.85 31.348 L 70.85 56.689 L 80.566 56.689 A 34.368 34.368 0 0 0 84.959 56.429 Q 89.74 55.811 92.502 53.727 A 9.801 9.801 0 0 0 92.92 53.394 Q 96.742 50.168 96.824 43.928 A 20.941 20.941 0 0 0 96.826 43.652 Q 96.826 39.292 95.063 36.581 A 8.495 8.495 0 0 0 92.676 34.155 A 13.337 13.337 0 0 0 89.292 32.557 Q 85.555 31.348 79.883 31.348 Z M 434.18 64.307 L 456.299 64.307 L 448.779 43.262 Q 448.518 42.439 448.041 40.987 A 735.409 735.409 0 0 0 447.729 40.039 A 243.075 243.075 0 0 1 446.402 35.882 A 265.588 265.588 0 0 1 446.313 35.596 Q 445.605 33.301 445.166 31.787 A 105.128 105.128 0 0 1 444.498 34.375 A 124.706 124.706 0 0 1 444.043 36.011 A 170.271 170.271 0 0 1 443.414 38.159 A 139.512 139.512 0 0 1 442.798 40.161 Q 442.188 42.09 441.797 43.262 L 434.18 64.307 Z M 148.389 0 L 159.912 0 L 159.912 0.977 Q 159.182 1.939 158.102 3.161 A 70.471 70.471 0 0 1 157.007 4.37 Q 155.176 6.348 152.979 8.521 A 113.418 113.418 0 0 1 148.584 12.646 A 104.948 104.948 0 0 1 146.736 14.253 Q 145.596 15.219 144.58 16.016 L 138.037 16.016 L 138.037 14.795 A 73.412 73.412 0 0 0 139.26 13.3 Q 140.323 11.969 141.528 10.352 Q 143.457 7.764 145.313 5.005 A 78.442 78.442 0 0 0 146.815 2.689 Q 147.48 1.62 148.033 0.642 A 44.423 44.423 0 0 0 148.389 0 Z"/></g></svg>