<svg width="1354.005" height="189.942" viewBox="0 0 1354.005 189.942" xmlns="http://www.w3.org/2000/svg"><g id="svgGroup" stroke-linecap="round" fill-rule="nonzero" font-size="9pt" stroke="#000000" stroke-width="0" fill="#e6e6e6" style="stroke:#000000;stroke-width:0;fill:#e6e6e6"><path d="M 1234.082 45.215 L 1234.082 187.988 L 1205.273 187.988 L 1135.352 74.023 L 1134.473 74.023 A 766.048 766.048 0 0 1 1134.851 79.956 A 905.046 905.046 0 0 1 1135.205 86.23 A 765.588 765.588 0 0 1 1135.76 98.659 A 835.071 835.071 0 0 1 1135.791 99.512 A 1750.171 1750.171 0 0 1 1136.23 113.379 L 1136.23 187.988 L 1114.941 187.988 L 1114.941 45.215 L 1143.555 45.215 L 1213.379 158.398 L 1214.063 158.398 A 1489.877 1489.877 0 0 0 1213.873 153.76 Q 1213.772 151.389 1213.655 148.756 A 2555.342 2555.342 0 0 0 1213.574 146.973 A 1321.927 1321.927 0 0 1 1213.099 135.357 A 1457.274 1457.274 0 0 1 1213.037 133.643 A 665.815 665.815 0 0 1 1212.722 121.931 A 602.075 602.075 0 0 1 1212.695 120.313 L 1212.695 45.215 L 1234.082 45.215 Z M 208.594 168.164 L 208.594 187.988 L 127.734 187.988 L 127.734 45.215 L 208.594 45.215 L 208.594 64.941 L 151.172 64.941 L 151.172 103.711 L 204.98 103.711 L 204.98 123.34 L 151.172 123.34 L 151.172 168.164 L 208.594 168.164 Z M 532.324 182.324 L 532.324 160.254 A 138.694 138.694 0 0 0 542.751 164.307 A 177.221 177.221 0 0 0 551.758 167.139 A 79.079 79.079 0 0 0 573.633 170.215 A 56.967 56.967 0 0 0 579.95 169.885 Q 584.944 169.327 588.721 167.822 A 22.705 22.705 0 0 0 593.167 165.489 A 16.387 16.387 0 0 0 597.656 160.986 A 17.751 17.751 0 0 0 600.463 152.966 A 22.483 22.483 0 0 0 600.586 150.586 A 19.552 19.552 0 0 0 599.884 145.234 A 15.642 15.642 0 0 0 597.168 139.844 A 23.581 23.581 0 0 0 593.667 136.266 Q 590.845 133.904 586.865 131.787 A 132.62 132.62 0 0 0 581.214 128.965 Q 578.656 127.758 575.76 126.498 A 267.44 267.44 0 0 0 569.629 123.926 A 113.418 113.418 0 0 1 556.201 117.48 A 54.292 54.292 0 0 1 544.824 108.984 A 35.899 35.899 0 0 1 536.963 97.412 A 33.978 33.978 0 0 1 534.715 89.629 Q 534.122 86.131 534.085 82.171 A 56.611 56.611 0 0 1 534.082 81.641 A 42.118 42.118 0 0 1 535.275 71.388 A 32.649 32.649 0 0 1 539.893 60.938 A 35.646 35.646 0 0 1 552.342 49.7 A 44.685 44.685 0 0 1 556.299 47.754 Q 566.895 43.164 581.055 43.164 A 96.026 96.026 0 0 1 595.873 44.272 A 83.288 83.288 0 0 1 602.197 45.508 Q 612.109 47.852 621.68 52.148 L 614.258 70.996 A 140.107 140.107 0 0 0 602.427 66.72 A 119.145 119.145 0 0 0 597.217 65.234 A 66.587 66.587 0 0 0 580.371 63.086 A 40.857 40.857 0 0 0 574.737 63.453 Q 571.827 63.859 569.365 64.713 A 22.615 22.615 0 0 0 567.773 65.332 A 20.132 20.132 0 0 0 563.484 67.823 A 15.814 15.814 0 0 0 559.912 71.631 A 16.055 16.055 0 0 0 557.416 78.4 A 20.82 20.82 0 0 0 557.227 81.25 A 21.028 21.028 0 0 0 557.774 86.167 A 15.627 15.627 0 0 0 560.303 91.748 Q 562.776 95.163 567.458 98.105 A 43.177 43.177 0 0 0 569.873 99.512 Q 576.367 103.027 586.621 107.324 Q 596.776 111.52 604.298 116.077 A 87.305 87.305 0 0 1 606.689 117.578 A 43.063 43.063 0 0 1 614.368 123.877 A 35.482 35.482 0 0 1 619.336 130.42 A 30.18 30.18 0 0 1 622.699 139.124 Q 623.537 142.827 623.694 147.112 A 54.85 54.85 0 0 1 623.73 149.121 A 43.611 43.611 0 0 1 622.368 160.25 A 34.913 34.913 0 0 1 617.529 170.996 A 37.168 37.168 0 0 1 605.206 182.349 A 47.549 47.549 0 0 1 599.756 185.059 A 58.979 58.979 0 0 1 587.073 188.721 Q 580.176 189.941 572.168 189.941 A 126.051 126.051 0 0 1 560.834 189.447 A 111.242 111.242 0 0 1 557.227 189.063 Q 550.098 188.184 543.799 186.475 A 75.022 75.022 0 0 1 536.408 184.069 A 61.616 61.616 0 0 1 532.324 182.324 Z M 1262.598 182.324 L 1262.598 160.254 A 138.694 138.694 0 0 0 1273.024 164.307 A 177.221 177.221 0 0 0 1282.031 167.139 A 79.079 79.079 0 0 0 1303.906 170.215 A 56.967 56.967 0 0 0 1310.223 169.885 Q 1315.217 169.327 1318.994 167.822 A 22.705 22.705 0 0 0 1323.44 165.489 A 16.387 16.387 0 0 0 1327.93 160.986 A 17.751 17.751 0 0 0 1330.736 152.966 A 22.483 22.483 0 0 0 1330.859 150.586 A 19.552 19.552 0 0 0 1330.158 145.234 A 15.642 15.642 0 0 0 1327.441 139.844 A 23.581 23.581 0 0 0 1323.94 136.266 Q 1321.119 133.904 1317.139 131.787 A 132.62 132.62 0 0 0 1311.488 128.965 Q 1308.93 127.758 1306.034 126.498 A 267.44 267.44 0 0 0 1299.902 123.926 A 113.418 113.418 0 0 1 1286.475 117.48 A 54.292 54.292 0 0 1 1275.098 108.984 A 35.899 35.899 0 0 1 1267.236 97.412 A 33.978 33.978 0 0 1 1264.988 89.629 Q 1264.395 86.131 1264.358 82.171 A 56.611 56.611 0 0 1 1264.355 81.641 A 42.118 42.118 0 0 1 1265.549 71.388 A 32.649 32.649 0 0 1 1270.166 60.938 A 35.646 35.646 0 0 1 1282.616 49.7 A 44.685 44.685 0 0 1 1286.572 47.754 Q 1297.168 43.164 1311.328 43.164 A 96.026 96.026 0 0 1 1326.147 44.272 A 83.288 83.288 0 0 1 1332.471 45.508 Q 1342.383 47.852 1351.953 52.148 L 1344.531 70.996 A 140.107 140.107 0 0 0 1332.7 66.72 A 119.145 119.145 0 0 0 1327.49 65.234 A 66.587 66.587 0 0 0 1310.645 63.086 A 40.857 40.857 0 0 0 1305.01 63.453 Q 1302.1 63.859 1299.638 64.713 A 22.615 22.615 0 0 0 1298.047 65.332 A 20.132 20.132 0 0 0 1293.757 67.823 A 15.814 15.814 0 0 0 1290.186 71.631 A 16.055 16.055 0 0 0 1287.689 78.4 A 20.82 20.82 0 0 0 1287.5 81.25 A 21.028 21.028 0 0 0 1288.047 86.167 A 15.627 15.627 0 0 0 1290.576 91.748 Q 1293.049 95.163 1297.732 98.105 A 43.177 43.177 0 0 0 1300.146 99.512 Q 1306.641 103.027 1316.895 107.324 Q 1327.049 111.52 1334.572 116.077 A 87.305 87.305 0 0 1 1336.963 117.578 A 43.063 43.063 0 0 1 1344.642 123.877 A 35.482 35.482 0 0 1 1349.609 130.42 A 30.18 30.18 0 0 1 1352.973 139.124 Q 1353.811 142.827 1353.968 147.112 A 54.85 54.85 0 0 1 1354.004 149.121 A 43.611 43.611 0 0 1 1352.641 160.25 A 34.913 34.913 0 0 1 1347.803 170.996 A 37.168 37.168 0 0 1 1335.48 182.349 A 47.549 47.549 0 0 1 1330.029 185.059 A 58.979 58.979 0 0 1 1317.346 188.721 Q 1310.449 189.941 1302.441 189.941 A 126.051 126.051 0 0 1 1291.107 189.447 A 111.242 111.242 0 0 1 1287.5 189.063 Q 1280.371 188.184 1274.072 186.475 A 75.022 75.022 0 0 1 1266.681 184.069 A 61.616 61.616 0 0 1 1262.598 182.324 Z M 0 45.215 L 40.137 45.215 Q 58.594 45.215 70.654 49.707 A 41.985 41.985 0 0 1 79.735 54.332 A 31.671 31.671 0 0 1 88.623 63.379 A 35.268 35.268 0 0 1 93.211 74.446 Q 94.284 78.98 94.485 84.248 A 64.787 64.787 0 0 1 94.531 86.719 Q 94.531 97.266 90.625 104.688 A 37.072 37.072 0 0 1 80.371 116.992 Q 74.023 121.875 66.797 124.805 L 107.324 187.988 L 80.859 187.988 L 46.387 130.762 L 23.438 130.762 L 23.438 187.988 L 0 187.988 L 0 45.215 Z M 38.574 64.746 L 23.438 64.746 L 23.438 111.426 L 39.648 111.426 A 69.591 69.591 0 0 0 48.007 110.96 Q 56.843 109.887 62.032 106.343 A 18.371 18.371 0 0 0 63.33 105.371 A 19.482 19.482 0 0 0 69.981 94.332 A 30.411 30.411 0 0 0 70.703 87.5 A 30.547 30.547 0 0 0 70.046 80.934 Q 69.166 76.938 67.106 74.027 A 15.841 15.841 0 0 0 62.842 69.922 A 25.56 25.56 0 0 0 56.427 66.975 Q 49.341 64.746 38.574 64.746 Z M 352.734 187.988 L 327.832 187.988 L 313.867 148.34 L 259.277 148.34 L 245.313 187.988 L 220.605 187.988 L 273.73 44.629 L 299.707 44.629 L 352.734 187.988 Z M 265.82 128.223 L 307.813 128.223 L 294.238 89.16 Q 293.457 86.621 291.992 81.982 A 851.744 851.744 0 0 1 289.062 72.51 A 1499.713 1499.713 0 0 1 288.033 69.097 Q 287.632 67.764 287.279 66.578 A 712.786 712.786 0 0 1 286.621 64.355 Q 285.645 68.359 284.229 73.291 A 588.914 588.914 0 0 1 282.837 78.064 A 482.912 482.912 0 0 1 281.494 82.52 Q 280.485 85.809 279.847 87.954 A 252.341 252.341 0 0 0 279.492 89.16 L 265.82 128.223 Z M 764.648 187.988 L 739.746 187.988 L 725.781 148.34 L 671.191 148.34 L 657.227 187.988 L 632.52 187.988 L 685.645 44.629 L 711.621 44.629 L 764.648 187.988 Z M 677.734 128.223 L 719.727 128.223 L 706.152 89.16 Q 705.371 86.621 703.906 81.982 A 851.744 851.744 0 0 1 700.977 72.51 A 1499.713 1499.713 0 0 1 699.947 69.097 Q 699.546 67.764 699.193 66.578 A 712.786 712.786 0 0 1 698.535 64.355 Q 697.559 68.359 696.143 73.291 A 588.914 588.914 0 0 1 694.751 78.064 A 482.912 482.912 0 0 1 693.408 82.52 Q 692.399 85.809 691.762 87.954 A 252.341 252.341 0 0 0 691.406 89.16 L 677.734 128.223 Z M 833.008 65.137 L 833.008 187.988 L 809.473 187.988 L 809.473 65.137 L 767.676 65.137 L 767.676 45.215 L 874.707 45.215 L 874.707 65.137 L 833.008 65.137 Z M 455.664 187.988 L 371.582 187.988 L 371.582 45.215 L 395.02 45.215 L 395.02 168.066 L 455.664 168.066 L 455.664 187.988 Z M 1083.036 133.567 A 90.195 90.195 0 0 1 1080.127 146.436 A 68.393 68.393 0 0 1 1073.318 161.855 A 59.228 59.228 0 0 1 1067.676 169.678 A 54.689 54.689 0 0 1 1048.038 184.164 A 63.587 63.587 0 0 1 1046.875 184.668 Q 1034.558 189.864 1018.069 189.94 A 106.399 106.399 0 0 1 1017.578 189.941 A 93.327 93.327 0 0 1 1003.494 188.932 Q 995.795 187.756 989.276 185.209 A 56.684 56.684 0 0 1 987.939 184.668 A 55.539 55.539 0 0 1 971.533 174.231 A 52.211 52.211 0 0 1 967.139 169.629 A 62.299 62.299 0 0 1 956.817 152.145 A 74.984 74.984 0 0 1 954.785 146.289 A 95.174 95.174 0 0 1 951.266 128.237 A 120.394 120.394 0 0 1 950.684 116.211 A 113.228 113.228 0 0 1 952.177 97.363 A 82.39 82.39 0 0 1 957.959 77.686 A 55.616 55.616 0 0 1 980.127 52.1 Q 995.02 42.969 1017.773 42.969 Q 1037.283 42.969 1051.019 49.942 A 52.439 52.439 0 0 1 1054.785 52.051 A 56.167 56.167 0 0 1 1076.904 77.588 A 81.116 81.116 0 0 1 1082.657 96.739 Q 1084.176 105.349 1084.271 115.101 A 134.095 134.095 0 0 1 1084.277 116.406 A 113.754 113.754 0 0 1 1083.036 133.567 Z M 975.293 116.406 A 102.031 102.031 0 0 0 976.122 129.769 Q 977.017 136.532 978.876 142.341 A 59.444 59.444 0 0 0 979.785 144.971 A 42.884 42.884 0 0 0 985.271 155.348 A 35.075 35.075 0 0 0 993.604 163.525 Q 1002.264 169.556 1015.513 169.986 A 63.571 63.571 0 0 0 1017.578 170.02 Q 1029.97 170.02 1038.499 165.434 A 31.007 31.007 0 0 0 1041.602 163.525 A 35.794 35.794 0 0 0 1052.945 150.318 A 46.257 46.257 0 0 0 1055.273 144.971 A 68.738 68.738 0 0 0 1058.5 132.245 Q 1059.485 126.061 1059.639 119.037 A 119.995 119.995 0 0 0 1059.668 116.406 A 101.616 101.616 0 0 0 1058.59 101.108 Q 1057.383 93.199 1054.825 86.76 A 46.519 46.519 0 0 0 1049.658 77.1 Q 1039.697 62.96 1017.987 62.891 A 67.084 67.084 0 0 0 1017.773 62.891 Q 1003.125 62.891 993.701 69.336 A 36.098 36.098 0 0 0 981.814 83.112 A 46.069 46.069 0 0 0 979.785 87.744 Q 975.778 98.416 975.345 112.857 A 118.58 118.58 0 0 0 975.293 116.406 Z M 503.711 187.988 L 480.273 187.988 L 480.273 45.215 L 503.711 45.215 L 503.711 187.988 Z M 919.922 187.988 L 896.484 187.988 L 896.484 45.215 L 919.922 45.215 L 919.922 187.988 Z M 176.563 0 L 203.027 0 L 203.027 1.953 A 62.118 62.118 0 0 1 201.22 4.033 Q 199.307 6.145 196.68 8.74 A 345.589 345.589 0 0 1 192.505 12.793 A 418.247 418.247 0 0 1 187.988 17.041 A 342.89 342.89 0 0 1 178.729 25.326 A 432.316 432.316 0 0 1 178.711 25.342 Q 174.767 28.741 171.471 31.238 A 98.272 98.272 0 0 1 170.41 32.031 L 155.078 32.031 L 155.078 29.492 A 141.357 141.357 0 0 0 157.598 26.503 Q 158.691 25.172 159.855 23.697 A 245.212 245.212 0 0 0 162.256 20.605 Q 166.211 15.43 170.068 9.961 A 177.161 177.161 0 0 0 173.21 5.363 Q 175.079 2.527 176.563 0 Z"/></g></svg>